HIERARCHY
ROOT hip
{
  OFFSET 0 90.174 2.4664
  CHANNELS 6 Xposition Yposition Zposition Zrotation Xrotation Yrotation
  JOINT abdomen
  {
    OFFSET 0 -1.186 -1.5018
    CHANNELS 6 Xposition Yposition Zposition Zrotation Xrotation Yrotation
    JOINT abdomen2
    {
      OFFSET 0 9.964 0.2134
      CHANNELS 6 Xposition Yposition Zposition Zrotation Xrotation Yrotation
      JOINT chest
      {
        OFFSET 0 13.134 -3.2573
        CHANNELS 6 Xposition Yposition Zposition Zrotation Xrotation Yrotation
        JOINT neck
        {
          OFFSET 0 20.686 -1.6905
          CHANNELS 6 Xposition Yposition Zposition Zrotation Xrotation Yrotation
          JOINT head
          {
            OFFSET 0 7.238 -0.1237
            CHANNELS 6 Xposition Yposition Zposition Zrotation Xrotation Yrotation
            End Site
            {
              OFFSET 0 0 0
            }
          }
        }
        JOINT lCollar
        {
          OFFSET 1.7069 20.075 5.0056
          CHANNELS 6 Xposition Yposition Zposition Zrotation Xrotation Yrotation
          JOINT lShldr
          {
            OFFSET 13.6458 -0.047 -4.849
            CHANNELS 6 Xposition Yposition Zposition Zrotation Xrotation Yrotation
            JOINT lForeArm
            {
              OFFSET 28.3255 -0.9759 2.2888
              CHANNELS 6 Xposition Yposition Zposition Zrotation Xrotation Yrotation
              JOINT lHand
              {
                OFFSET 22.1583 -0.53 10.8316
                CHANNELS 6 Xposition Yposition Zposition Zrotation Xrotation Yrotation
                JOINT lThumb1
                {
                  OFFSET 0.786 0.112 2.5817
                  CHANNELS 6 Xposition Yposition Zposition Zrotation Xrotation Yrotation
                  JOINT lThumb2
                  {
                    OFFSET 0.3601 -0.878 4.2331
                    CHANNELS 6 Xposition Yposition Zposition Zrotation Xrotation Yrotation
                    JOINT lThumb2_End
                    {
                      OFFSET 1.8127 -1.216 2.2227
                      CHANNELS 6 Xposition Yposition Zposition Zrotation Xrotation Yrotation
                      End Site
                      {
                        OFFSET 0.0181 -0.0122 0.0222
                      }
                    }
                  }
                }
                JOINT lCarpal1
                {
                  OFFSET 0.9571 1.114 1.7695
                  CHANNELS 6 Xposition Yposition Zposition Zrotation Xrotation Yrotation
                  JOINT lIndex1
                  {
                    OFFSET 4.1246 0.487 4.1451
                    CHANNELS 6 Xposition Yposition Zposition Zrotation Xrotation Yrotation
                    JOINT lIndex2
                    {
                      OFFSET 3.4052 -1.454 2.7682
                      CHANNELS 6 Xposition Yposition Zposition Zrotation Xrotation Yrotation
                      JOINT lIndex2_End
                      {
                        OFFSET 1.4531 -1.795 1.2713
                        CHANNELS 6 Xposition Yposition Zposition Zrotation Xrotation Yrotation
                        End Site
                        {
                          OFFSET 0.0145 -0.0179 0.0127
                        }
                      }
                    }
                  }
                  JOINT lMid1
                  {
                    OFFSET 5.6954 0.21 2.1184
                    CHANNELS 6 Xposition Yposition Zposition Zrotation Xrotation Yrotation
                    JOINT lMid2
                    {
                      OFFSET 3.9766 -1.54 2.3863
                      CHANNELS 6 Xposition Yposition Zposition Zrotation Xrotation Yrotation
                      JOINT lMid2_End
                      {
                        OFFSET 1.4042 -1.926 1.125
                        CHANNELS 6 Xposition Yposition Zposition Zrotation Xrotation Yrotation
                        End Site
                        {
                          OFFSET 0.014 -0.0193 0.0113
                        }
                      }
                    }
                  }
                }
                JOINT lCarpal2
                {
                  OFFSET 2.0956 0.66 -0.3894
                  CHANNELS 6 Xposition Yposition Zposition Zrotation Xrotation Yrotation
                  JOINT lRing1
                  {
                    OFFSET 5.0395 -0.09 2.4971
                    CHANNELS 6 Xposition Yposition Zposition Zrotation Xrotation Yrotation
                    JOINT lRing2
                    {
                      OFFSET 3.7921 -1.552 1.4806
                      CHANNELS 6 Xposition Yposition Zposition Zrotation Xrotation Yrotation
                      JOINT lRing2_End
                      {
                        OFFSET 1.4655 -1.808 0.9609
                        CHANNELS 6 Xposition Yposition Zposition Zrotation Xrotation Yrotation
                        End Site
                        {
                          OFFSET 0.0147 -0.0181 0.0096
                        }
                      }
                    }
                  }
                  JOINT lPinky1
                  {
                    OFFSET 4.9141 -1.269 0.3591
                    CHANNELS 6 Xposition Yposition Zposition Zrotation Xrotation Yrotation
                    JOINT lPinky2
                    {
                      OFFSET 3.1477 -1.685 0.8462
                      CHANNELS 6 Xposition Yposition Zposition Zrotation Xrotation Yrotation
                      JOINT lPinky2_End
                      {
                        OFFSET 0.8055 -1.585 0.7955
                        CHANNELS 6 Xposition Yposition Zposition Zrotation Xrotation Yrotation
                        End Site
                        {
                          OFFSET 0.0081 -0.0158 0.008
                        }
                      }
                    }
                  }
                }
              }
            }
          }
        }
        JOINT rCollar
        {
          OFFSET -1.7069 20.075 5.0056
          CHANNELS 6 Xposition Yposition Zposition Zrotation Xrotation Yrotation
          JOINT rShldr
          {
            OFFSET -13.6458 -0.047 -4.849
            CHANNELS 6 Xposition Yposition Zposition Zrotation Xrotation Yrotation
            JOINT rForeArm
            {
              OFFSET -28.3255 -0.9759 2.2888
              CHANNELS 6 Xposition Yposition Zposition Zrotation Xrotation Yrotation
              JOINT rHand
              {
                OFFSET -22.1583 -0.53 10.8316
                CHANNELS 6 Xposition Yposition Zposition Zrotation Xrotation Yrotation
                JOINT rThumb1
                {
                  OFFSET -0.786 0.112 2.5817
                  CHANNELS 6 Xposition Yposition Zposition Zrotation Xrotation Yrotation
                  JOINT rThumb2
                  {
                    OFFSET -0.3601 -0.878 4.2331
                    CHANNELS 6 Xposition Yposition Zposition Zrotation Xrotation Yrotation
                    JOINT rThumb2_End
                    {
                      OFFSET -1.8127 -1.216 2.2227
                      CHANNELS 6 Xposition Yposition Zposition Zrotation Xrotation Yrotation
                      End Site
                      {
                        OFFSET -0.0181 -0.0122 0.0222
                      }
                    }
                  }
                }
                JOINT rCarpal1
                {
                  OFFSET -0.9571 1.114 1.7695
                  CHANNELS 6 Xposition Yposition Zposition Zrotation Xrotation Yrotation
                  JOINT rIndex1
                  {
                    OFFSET -4.1246 0.487 4.1451
                    CHANNELS 6 Xposition Yposition Zposition Zrotation Xrotation Yrotation
                    JOINT rIndex2
                    {
                      OFFSET -3.4052 -1.454 2.7682
                      CHANNELS 6 Xposition Yposition Zposition Zrotation Xrotation Yrotation
                      JOINT rIndex2_End
                      {
                        OFFSET -1.4531 -1.795 1.2713
                        CHANNELS 6 Xposition Yposition Zposition Zrotation Xrotation Yrotation
                        End Site
                        {
                          OFFSET -0.0145 -0.018 0.0127
                        }
                      }
                    }
                  }
                  JOINT rMid1
                  {
                    OFFSET -5.6954 0.21 2.1184
                    CHANNELS 6 Xposition Yposition Zposition Zrotation Xrotation Yrotation
                    JOINT rMid2
                    {
                      OFFSET -3.9766 -1.54 2.3863
                      CHANNELS 6 Xposition Yposition Zposition Zrotation Xrotation Yrotation
                      JOINT rMid2_End
                      {
                        OFFSET -1.4042 -1.926 1.125
                        CHANNELS 6 Xposition Yposition Zposition Zrotation Xrotation Yrotation
                        End Site
                        {
                          OFFSET -0.014 -0.0193 0.0113
                        }
                      }
                    }
                  }
                }
                JOINT rCarpal2
                {
                  OFFSET -2.0956 0.66 -0.3894
                  CHANNELS 6 Xposition Yposition Zposition Zrotation Xrotation Yrotation
                  JOINT rRing1
                  {
                    OFFSET -5.0395 -0.09 2.4971
                    CHANNELS 6 Xposition Yposition Zposition Zrotation Xrotation Yrotation
                    JOINT rRing2
                    {
                      OFFSET -3.7921 -1.552 1.4806
                      CHANNELS 6 Xposition Yposition Zposition Zrotation Xrotation Yrotation
                      JOINT rRing2_End
                      {
                        OFFSET -1.4655 -1.808 0.9609
                        CHANNELS 6 Xposition Yposition Zposition Zrotation Xrotation Yrotation
                        End Site
                        {
                          OFFSET -0.0147 -0.0181 0.0096
                        }
                      }
                    }
                  }
                  JOINT rPinky1
                  {
                    OFFSET -4.9141 -1.269 0.3592
                    CHANNELS 6 Xposition Yposition Zposition Zrotation Xrotation Yrotation
                    JOINT rPinky2
                    {
                      OFFSET -3.1477 -1.685 0.8462
                      CHANNELS 6 Xposition Yposition Zposition Zrotation Xrotation Yrotation
                      JOINT rPinky2_End
                      {
                        OFFSET -0.8055 -1.585 0.7955
                        CHANNELS 6 Xposition Yposition Zposition Zrotation Xrotation Yrotation
                        End Site
                        {
                          OFFSET -0.0081 -0.0158 0.008
                        }
                      }
                    }
                  }
                }
              }
            }
          }
        }
      }
    }
  }
  JOINT lThigh
  {
    OFFSET 8.367 -8.2066 0.5982
    CHANNELS 6 Xposition Yposition Zposition Zrotation Xrotation Yrotation
    JOINT lShin
    {
      OFFSET 2.1923 -43.463 -0.4932
      CHANNELS 6 Xposition Yposition Zposition Zrotation Xrotation Yrotation
      JOINT lFoot
      {
        OFFSET 0.7333 -45.8593 -2.6451
        CHANNELS 6 Xposition Yposition Zposition Zrotation Xrotation Yrotation
        End Site
        {
          OFFSET 2.6618 -4.2699 12.3931
        }
      }
    }
  }
  JOINT rThigh
  {
    OFFSET -8.367 -8.2066 0.5982
    CHANNELS 6 Xposition Yposition Zposition Zrotation Xrotation Yrotation
    JOINT rShin
    {
      OFFSET -2.1923 -43.463 -0.4931
      CHANNELS 6 Xposition Yposition Zposition Zrotation Xrotation Yrotation
      JOINT rFoot
      {
        OFFSET -0.7333 -45.8593 -2.6451
        CHANNELS 6 Xposition Yposition Zposition Zrotation Xrotation Yrotation
        End Site
        {
          OFFSET -2.6618 -4.2699 12.3931
        }
      }
    }
  }
}
MOTION
Frames:	4
Frame Time:	0.0333333
0 90.174 2.4664 0 0 -0 0 -1.186 -1.5018 0 0 -0 0 9.964 0.2134 0 0 -0 0 13.134 -3.2573 0 0 -0 0 20.686 -1.6905 0 0 -0 0 7.238 -0.1237 0 0 -0 1.7069 20.075 5.0056 0 0 -0 13.6458 -0.047 -4.849 1.66051 0.0835086 5.75766 28.3255 -0.9759 2.2888 -0.0175111 0.895433 15.7816 22.1583 -0.53 10.8316 7.95139e-016 -1.98785e-016 -0 0.786 0.112 2.5817 5.46658e-016 -3.97569e-016 -0 0.3601 -0.878 4.2331 5.96354e-016 0 -0 1.8127 -1.216 2.2227 3.97569e-016 1.98785e-016 9.54166e-015 0.9571 1.114 1.7695 1.49089e-016 -3.97569e-016 -0 4.1246 0.487 4.1451 6.4605e-016 0 3.18055e-015 3.4052 -1.454 2.7682 5.96354e-016 0 3.18055e-015 1.4531 -1.795 1.2713 8.94531e-016 -1.98785e-016 6.36111e-015 5.6954 0.21 2.1184 6.4605e-016 0 3.18055e-015 3.9766 -1.54 2.3863 5.96354e-016 0 3.18055e-015 1.4042 -1.926 1.125 8.94531e-016 -1.98785e-016 6.36111e-015 2.0956 0.66 -0.3894 1.49089e-016 -3.97569e-016 -0 5.0395 -0.09 2.4971 6.4605e-016 0 3.18055e-015 3.7921 -1.552 1.4806 5.96354e-016 0 3.18055e-015 1.4655 -1.808 0.9609 8.94531e-016 -1.98785e-016 6.36111e-015 4.9141 -1.269 0.3591 6.4605e-016 0 3.18055e-015 3.1477 -1.685 0.8462 5.96354e-016 0 3.18055e-015 0.8055 -1.585 0.7955 8.94531e-016 -1.98785e-016 6.36111e-015 -1.7069 20.075 5.0056 0 0 -0 -13.6458 -0.047 -4.849 -1.4496 0.0636048 -5.0245 -28.3255 -0.9759 2.2888 -1.74811 1.20616 -16.8394 -22.1583 -0.53 10.8316 -1.19271e-015 1.98785e-016 -3.18055e-015 -0.786 0.112 2.5817 -3.97569e-016 1.98785e-016 -3.18055e-015 -0.3601 -0.878 4.2331 -2.98177e-016 1.98785e-016 -3.18055e-015 -1.8127 -1.216 2.2227 -2.98177e-016 3.97569e-016 -0 -0.9571 1.114 1.7695 4.96962e-016 0 -6.36111e-015 -4.1246 0.487 4.1451 -9.93923e-017 3.97569e-016 -0 -3.4052 -1.454 2.7682 -8.94531e-016 5.96354e-016 -0 -1.4531 -1.795 1.2713 -3.97569e-016 3.97569e-016 -0 -5.6954 0.21 2.1184 -9.93923e-017 3.97569e-016 -0 -3.9766 -1.54 2.3863 -8.94531e-016 5.96354e-016 -0 -1.4042 -1.926 1.125 -3.97569e-016 3.97569e-016 -0 -2.0956 0.66 -0.3894 4.96962e-016 0 -6.36111e-015 -5.0395 -0.09 2.4971 -9.93923e-017 3.97569e-016 -0 -3.7921 -1.552 1.4806 -8.94531e-016 5.96354e-016 -0 -1.4655 -1.808 0.9609 -3.97569e-016 3.97569e-016 -0 -4.9141 -1.269 0.3592 -9.93923e-017 3.97569e-016 -0 -3.1477 -1.685 0.8462 -8.94531e-016 5.96354e-016 -0 -0.8055 -1.585 0.7955 -3.97569e-016 3.97569e-016 -0 8.367 -8.2066 0.5982 -4.66115 -1.03232 0.120763 2.1923 -43.463 -0.4932 0.00990601 1.55097 0.177175 0.7333 -45.8593 -2.6451 4.65196 -0.54114 -0.255042 -8.367 -8.2066 0.5982 4.66115 -1.03222 -0.120763 -2.1923 -43.463 -0.4931 -0.00990459 1.5509 -0.177176 -0.7333 -45.8593 -2.6451 -4.65196 -0.541171 0.255041 
-0.246717 29.6519 -8.55419 5.1955 -79.2501 3.95427 0 -1.186 -1.5018 -0.511626 5.14749 -0.691625 0 9.964 0.2134 -0.966426 10.3005 -1.34506 0 13.134 -3.2573 -0.966425 10.3005 -1.34506 -2.22045e-016 20.686 -1.6905 0.903974 4.6923 -0.22099 4.44089e-016 7.238 -0.1237 -0.46454 -4.0207 -1.65842 1.7069 20.075 5.0056 19.2091 2.77071 -15.8278 13.6458 -0.047 -4.849 -30.0146 49.5904 -24.5667 28.3255 -0.9759 2.2888 43.1582 -53.1878 5.7239 22.1583 -0.53 10.8316 -46.468 -29.8669 -34.2742 0.786 0.112 2.5817 -3.18055e-015 0 -3.18055e-015 0.3601 -0.878 4.2331 -7.88678e-007 -1.23244e-006 8.33529e-007 1.8127 -1.216 2.2227 -1.59028e-015 -3.97569e-015 1.59028e-014 0.9571 1.114 1.7695 -0 -1.59028e-015 -0 4.1246 0.487 4.1451 -7.95139e-015 -9.54166e-015 6.36111e-015 3.4052 -1.454 2.7682 -7.88678e-007 -1.23244e-006 8.33529e-007 1.4531 -1.795 1.2713 -6.36111e-015 -7.95139e-015 1.59028e-014 5.6954 0.21 2.1184 -7.95139e-015 -9.54166e-015 6.36111e-015 3.9766 -1.54 2.3863 -7.88678e-007 -1.23244e-006 8.33529e-007 1.4042 -1.926 1.125 -6.36111e-015 -7.95139e-015 1.59028e-014 2.0956 0.66 -0.3894 -0 -1.59028e-015 -0 5.0395 -0.09 2.4971 -7.95139e-015 -9.54166e-015 6.36111e-015 3.7921 -1.552 1.4806 -7.88678e-007 -1.23244e-006 8.33529e-007 1.4655 -1.808 0.9609 -6.36111e-015 -7.95139e-015 1.59028e-014 4.9141 -1.269 0.3591 -7.95139e-015 -9.54166e-015 6.36111e-015 3.1477 -1.685 0.8462 -7.88678e-007 -1.23244e-006 8.33529e-007 0.8055 -1.585 0.7955 -6.36111e-015 -7.95139e-015 1.59028e-014 -1.7069 20.075 5.0056 -19.2382 2.78361 15.7951 -13.6458 -0.047 -4.849 30.2504 49.7176 25.1029 -28.3255 -0.9759 2.2888 -46.8233 -52.6324 -9.1349 -22.1583 -0.53 10.8316 46.7353 -30.5236 33.3383 -0.786 0.112 2.5817 3.60297e-006 3.44239e-007 1.50284e-006 -0.3601 -0.878 4.2331 1.68661e-006 -2.23691e-006 -1.87347e-006 -1.8127 -1.216 2.2227 -3.60297e-006 -3.44239e-007 -1.50284e-006 -0.9571 1.114 1.7695 -2.64834e-031 4.77083e-015 3.18055e-015 -4.1246 0.487 4.1451 3.60297e-006 3.44239e-007 1.50284e-006 -3.4052 -1.454 2.7682 1.68661e-006 -2.23691e-006 -1.87347e-006 -1.4531 -1.795 1.2713 -3.60297e-006 -3.44239e-007 -1.50284e-006 -5.6954 0.21 2.1184 3.60297e-006 3.44239e-007 1.50284e-006 -3.9766 -1.54 2.3863 1.68661e-006 -2.23691e-006 -1.87347e-006 -1.4042 -1.926 1.125 -3.60297e-006 -3.44239e-007 -1.50284e-006 -2.0956 0.66 -0.3894 -2.64834e-031 4.77083e-015 3.18055e-015 -5.0395 -0.09 2.4971 3.60297e-006 3.44239e-007 1.50284e-006 -3.7921 -1.552 1.4806 1.68661e-006 -2.23691e-006 -1.87347e-006 -1.4655 -1.808 0.9609 -3.60297e-006 -3.44239e-007 -1.50284e-006 -4.9141 -1.269 0.3592 3.60297e-006 3.44239e-007 1.50284e-006 -3.1477 -1.685 0.8462 1.68661e-006 -2.23691e-006 -1.87347e-006 -0.8055 -1.585 0.7955 -3.60297e-006 -3.44239e-007 -1.50284e-006 8.367 -8.2066 0.5982 -4.8415 -11.9888 -4.61501 2.1923 -43.463 -0.4932 -1.13924 64.9534 3.27989 0.7333 -45.8593 -2.6451 1.86306 24.364 -2.00011 -8.367 -8.2066 0.5982 4.83031 -11.8145 4.59371 -2.1923 -43.463 -0.4931 1.11969 64.7794 -3.26525 -0.7333 -45.8593 -2.6451 -1.88076 24.3623 2.00144 
-0.204944 -1.10459 -9.81234 179.604 -65.0297 177.468 2.77556e-017 -1.186 -1.5018 -0.734404 7.45438 -1.06 0 9.964 0.2134 -1.34556 14.9207 -2.04901 1.11022e-016 13.134 -3.2573 -1.34556 14.9207 -2.04901 4.44089e-016 20.686 -1.6905 1.27524 6.82001 -0.312848 2.22045e-016 7.238 -0.1237 -0.749887 -5.82733 -2.41126 1.7069 20.075 5.0056 28.3435 3.84535 -22.9774 13.6458 -0.047 -4.849 -14.1829 60.209 -62.3949 28.3255 -0.9759 2.2888 41.3833 -73.976 -18.9122 22.1583 -0.53 10.8316 -76.9472 -29.5718 -52.3694 0.786 0.112 2.5817 2.78299e-015 -6.36111e-015 -0 0.3601 -0.878 4.2331 3.97569e-016 -6.36111e-015 -0 1.8127 -1.216 2.2227 -2.38542e-015 3.18055e-015 7.95139e-016 0.9571 1.114 1.7695 3.18055e-015 -6.36111e-015 7.95139e-016 4.1246 0.487 4.1451 2.38542e-015 -6.36111e-015 6.36111e-015 3.4052 -1.454 2.7682 8.82781e-032 3.18055e-015 -1.59028e-015 1.4531 -1.795 1.2713 -7.95139e-016 0 -0 5.6954 0.21 2.1184 2.38542e-015 -6.36111e-015 6.36111e-015 3.9766 -1.54 2.3863 8.82781e-032 3.18055e-015 -1.59028e-015 1.4042 -1.926 1.125 -7.95139e-016 0 -0 2.0956 0.66 -0.3894 3.18055e-015 -6.36111e-015 7.95139e-016 5.0395 -0.09 2.4971 2.38542e-015 -6.36111e-015 6.36111e-015 3.7921 -1.552 1.4806 8.82781e-032 3.18055e-015 -1.59028e-015 1.4655 -1.808 0.9609 -7.95139e-016 0 -0 4.9141 -1.269 0.3591 2.38542e-015 -6.36111e-015 6.36111e-015 3.1477 -1.685 0.8462 8.82781e-032 3.18055e-015 -1.59028e-015 0.8055 -1.585 0.7955 -7.95139e-016 0 -0 -1.7069 20.075 5.0056 -28.3871 3.86396 22.9303 -13.6458 -0.047 -4.849 14.4315 60.4871 62.9587 -28.3255 -0.9759 2.2888 -49.2059 -73.983 11.213 -22.1583 -0.53 10.8316 77.7733 -30.5575 51.5452 -0.786 0.112 2.5817 0 3.18055e-015 -0 -0.3601 -0.878 4.2331 -3.18055e-015 3.18055e-015 -1.59028e-015 -1.8127 -1.216 2.2227 5.56597e-015 6.36111e-015 -1.59028e-015 -0.9571 1.114 1.7695 0 0 -0 -4.1246 0.487 4.1451 -3.97569e-015 0 3.18055e-015 -3.4052 -1.454 2.7682 -3.18055e-015 0 -1.59028e-015 -1.4531 -1.795 1.2713 -3.97569e-015 9.54166e-015 1.59028e-015 -5.6954 0.21 2.1184 -3.97569e-015 0 3.18055e-015 -3.9766 -1.54 2.3863 -3.18055e-015 0 -1.59028e-015 -1.4042 -1.926 1.125 -3.97569e-015 9.54166e-015 1.59028e-015 -2.0956 0.66 -0.3894 0 0 -0 -5.0395 -0.09 2.4971 -3.97569e-015 0 3.18055e-015 -3.7921 -1.552 1.4806 -3.18055e-015 0 -1.59028e-015 -1.4655 -1.808 0.9609 -3.97569e-015 9.54166e-015 1.59028e-015 -4.9141 -1.269 0.3592 -3.97569e-015 0 3.18055e-015 -3.1477 -1.685 0.8462 -3.18055e-015 0 -1.59028e-015 -0.8055 -1.585 0.7955 -3.97569e-015 9.54166e-015 1.59028e-015 8.367 -8.2066 0.5982 -5.97979 -17.5134 -6.12387 2.1923 -43.463 -0.4932 -174.748 86.2741 178.198 0.7333 -45.8593 -2.6451 1.01633 36.021 -2.64667 -8.367 -8.2066 0.5982 5.9624 -17.3088 6.07063 -2.1923 -43.463 -0.4931 174.702 86.3212 -178.174 -0.7333 -45.8593 -2.6451 -1.05452 35.8595 2.64717 
-0.228892 5.76708 -9.83122 178.523 -72.9504 176.605 -2.77556e-017 -1.186 -1.5018 -0.685785 6.94232 -0.974798 -2.77556e-017 9.964 0.2134 -1.26558 13.895 -1.88616 -8.32667e-017 13.134 -3.2573 -1.26558 13.895 -1.88616 -4.44089e-016 20.686 -1.6905 1.08692 6.38324 -0.272852 0 7.238 -0.1237 -0.682354 -5.42607 -2.24342 1.7069 20.075 5.0056 26.2891 3.62068 -21.3866 13.6458 -0.047 -4.849 -19.9464 59.0286 -51.9886 28.3255 -0.9759 2.2888 44.9396 -69.5644 -10.0001 22.1583 -0.53 10.8316 -69.6647 -30.3755 -48.4357 0.786 0.112 2.5817 1.59028e-015 0 6.36111e-015 0.3601 -0.878 4.2331 6.36111e-015 3.18055e-015 -0 1.8127 -1.216 2.2227 4.77083e-015 0 -3.18055e-015 0.9571 1.114 1.7695 1.59028e-015 0 6.36111e-015 4.1246 0.487 4.1451 1.11319e-014 6.36111e-015 6.36111e-015 3.4052 -1.454 2.7682 3.18055e-015 3.18055e-015 3.18055e-015 1.4531 -1.795 1.2713 1.59028e-015 6.36111e-015 -3.18055e-015 5.6954 0.21 2.1184 1.11319e-014 6.36111e-015 6.36111e-015 3.9766 -1.54 2.3863 3.18055e-015 3.18055e-015 3.18055e-015 1.4042 -1.926 1.125 1.59028e-015 6.36111e-015 -3.18055e-015 2.0956 0.66 -0.3894 1.59028e-015 0 6.36111e-015 5.0395 -0.09 2.4971 1.11319e-014 6.36111e-015 6.36111e-015 3.7921 -1.552 1.4806 3.18055e-015 3.18055e-015 3.18055e-015 1.4655 -1.808 0.9609 1.59028e-015 6.36111e-015 -3.18055e-015 4.9141 -1.269 0.3591 1.11319e-014 6.36111e-015 6.36111e-015 3.1477 -1.685 0.8462 3.18055e-015 3.18055e-015 3.18055e-015 0.8055 -1.585 0.7955 1.59028e-015 6.36111e-015 -3.18055e-015 -1.7069 20.075 5.0056 -26.3293 3.63803 21.3427 -13.6458 -0.047 -4.849 20.7488 59.3915 52.2073 -28.3255 -0.9759 2.2888 -51.2895 -69.1461 3.9515 -22.1583 -0.53 10.8316 70.8495 -31.3362 47.8774 -0.786 0.112 2.5817 4.35176e-007 -6.17009e-007 1.51502e-006 -0.3601 -0.878 4.2331 1.90833e-014 6.36111e-015 -3.18055e-015 -1.8127 -1.216 2.2227 9.54166e-015 6.36111e-015 1.27222e-014 -0.9571 1.114 1.7695 -4.77083e-015 6.36111e-015 -6.36111e-015 -4.1246 0.487 4.1451 4.35176e-007 -6.17009e-007 1.51502e-006 -3.4052 -1.454 2.7682 1.74931e-014 9.54166e-015 -0 -1.4531 -1.795 1.2713 9.54166e-015 6.36111e-015 3.18055e-015 -5.6954 0.21 2.1184 4.35176e-007 -6.17009e-007 1.51502e-006 -3.9766 -1.54 2.3863 1.74931e-014 9.54166e-015 -0 -1.4042 -1.926 1.125 9.54166e-015 6.36111e-015 3.18055e-015 -2.0956 0.66 -0.3894 -4.77083e-015 6.36111e-015 -6.36111e-015 -5.0395 -0.09 2.4971 4.35176e-007 -6.17009e-007 1.51502e-006 -3.7921 -1.552 1.4806 1.74931e-014 9.54166e-015 -0 -1.4655 -1.808 0.9609 9.54166e-015 6.36111e-015 3.18055e-015 -4.9141 -1.269 0.3592 4.35176e-007 -6.17009e-007 1.51502e-006 -3.1477 -1.685 0.8462 1.74931e-014 9.54166e-015 -0 -0.8055 -1.585 0.7955 9.54166e-015 6.36111e-015 3.18055e-015 8.367 -8.2066 0.5982 -5.66508 -16.2458 -5.86686 2.1923 -43.463 -0.4932 -8.68202 87.2892 11.7881 0.7333 -45.8593 -2.6451 1.19703 33.3872 -2.5317 -8.367 -8.2066 0.5982 5.65085 -16.0495 5.82263 -2.1923 -43.463 -0.4931 8.39331 87.2116 -11.5171 -0.7333 -45.8593 -2.6451 -1.23127 33.2664 2.5323 
